<svg width="630" height="630" viewBox="0 0 630 630" fill="none" xmlns="http://www.w3.org/2000/svg">
<g clip-path="url(#clip0_310_316)">
<path d="M147.541 482.459C204.127 539.046 295.872 539.046 352.459 482.459C409.045 425.872 409.046 334.128 352.459 277.541M147.541 482.459C90.9544 425.872 90.9544 334.128 147.541 277.541C204.127 220.954 295.872 220.954 352.459 277.541M147.541 482.459L102.459 527.541M352.459 277.541L397.541 232.459" stroke="white" stroke-width="22" stroke-linecap="round"/>
<path d="M147.541 482.459C204.127 539.046 295.872 539.046 352.459 482.459C409.045 425.872 409.046 334.128 352.459 277.541M147.541 482.459C90.9544 425.872 90.9544 334.128 147.541 277.541C204.127 220.954 295.872 220.954 352.459 277.541M147.541 482.459L102.459 527.541M352.459 277.541L397.541 232.459" stroke="#F4F6FB" stroke-width="55" stroke-linecap="round"/>
</g>
<g clip-path="url(#clip1_310_316)">
<path d="M277.541 352.459C334.127 409.046 425.872 409.046 482.459 352.459C539.045 295.872 539.046 204.128 482.459 147.541M277.541 352.459C220.954 295.872 220.954 204.128 277.541 147.541C334.127 90.9544 425.872 90.9544 482.459 147.541M277.541 352.459L232.459 397.541M482.459 147.541L527.541 102.459" stroke="white" stroke-width="22" stroke-linecap="round"/>
<path d="M277.541 352.459C334.127 409.046 425.872 409.046 482.459 352.459C539.045 295.872 539.046 204.128 482.459 147.541M277.541 352.459C220.954 295.872 220.954 204.128 277.541 147.541C334.127 90.9544 425.872 90.9544 482.459 147.541M277.541 352.459L232.459 397.541M482.459 147.541L527.541 102.459" stroke="#EEF1FD" stroke-width="55" stroke-linecap="round"/>
</g>
<defs>
<clipPath id="clip0_310_316">
<rect y="130" width="500" height="500" rx="25" fill="white"/>
</clipPath>
<clipPath id="clip1_310_316">
<rect x="130" width="500" height="500" rx="25" fill="white"/>
</clipPath>
</defs>
</svg>
